#!OML:ASF H:\Terrain\Patient Classification 1\Walking\liu\liu.ASF
:FULLY-SPECIFIED
:DEGREES
171
root 8.84321 16.6225 -8.60047 4.06155 10.1297 -2.07107
lowerback -7.40349 -4.02352 -1.98962
upperback -0.367383 -5.33125 3.29927
thorax 4.26279 -2.71964 3.9419
lowerneck -19.7058 -5.52632 -13.3117
upperneck 20.2916 -7.11357 14.0053
head 10.8095 -2.71218 6.25242
rclavicle 2.10588e-015 4.33351e-014
rhumerus -46.0273 11.2549 -86.9969
rradius 33.245
rwrist -15.5773
rhand -28.1318 -23.0799
rfingers 7.12502
rthumb -1.51325 -53.0543
lclavicle 2.10588e-015 4.33351e-014
lhumerus -31.1697 -8.07031 94.0759
lradius 21.9252
lwrist -4.37748
lhand -3.77997 -17.6248
lfingers 7.12502
lthumb 21.9652 11.1481
rfemur -26.6621 -2.30261 26.1007
rtibia 32.3503
rfoot -11.9706 -4.07257
rtoes -6.45501
lfemur 4.89899 10.7626 -10.4427
ltibia 42.8313
lfoot 6.55852 5.15289
ltoes -2.13155
172
root 8.81677 16.6488 -8.47421 4.05275 10.0685 -2.29081
lowerback -7.30881 -3.86752 -1.83579
upperback -0.30932 -5.13802 3.31046
thorax 4.24047 -2.62138 3.89552
lowerneck -19.6663 -5.60668 -13.2617
upperneck 20.065 -7.20605 13.9352
head 10.7295 -2.75978 6.19164
rclavicle 3.63403e-015 4.37326e-015
rhumerus -45.535 11.1372 -86.8124
rradius 33.6083
rwrist -16.0364
rhand -27.9724 -23.4508
rfingers 7.12502
rthumb -1.35924 -53.4262
lclavicle 3.63403e-015 4.37326e-015
lhumerus -31.353 -7.32139 93.3825
lradius 21.2261
lwrist -6.71089
lhand -3.19597 -18.3797
lfingers 7.12502
lthumb 22.5259 10.3263
rfemur -25.9342 -2.29685 26.5014
rtibia 31.8033
rfoot -12.1967 -3.8485
rtoes -6.56073
lfemur 3.22202 11.0888 -10.1764
ltibia 45.6008
lfoot 6.58071 6.73281
ltoes 1.60434
173
root 8.79076 16.6636 -8.34938 4.02121 9.9929 -2.53818
lowerback -7.17578 -3.80066 -1.73598
upperback -0.297596 -5.06165 3.40177
thorax 4.17132 -2.58233 3.95226
lowerneck -19.4405 -5.64066 -13.3598
upperneck 19.7708 -7.20843 13.8887
head 10.5821 -2.7824 6.17853
rclavicle 6.25302e-014 -9.14409e-015
rhumerus -45.1513 11.4642 -86.7906
rradius 34.0341
rwrist -16.6125
rhand -28.4231 -24.2674
rfingers 7.12502
rthumb -1.7945 -54.2396
lclavicle 6.25302e-014 -9.14409e-015
lhumerus -31.7798 -6.21057 92.8933
lradius 20.9447
lwrist -7.67688
lhand -2.98068 -18.5081
lfingers 7.12502
lthumb 22.7325 10.1728
rfemur -25.2234 -2.19363 26.922
rtibia 31.2694
rfoot -12.3877 -3.73297
rtoes -6.50003
lfemur 1.65821 11.392 -9.91256
ltibia 48.1712
lfoot 1.76903 7.76395
ltoes -13.4913
174
root 8.77069 16.6839 -8.22824 4.02477 9.91091 -2.42811
lowerback -6.92693 -3.7055 -1.88741
upperback -0.3087 -4.92005 3.32669
thorax 4.01394 -2.51266 3.99136
lowerneck -19.399 -5.74092 -13.4887
upperneck 19.7235 -7.3424 14.0101
head 10.59 -2.84219 6.22391
rclavicle 1.53748e-014 -2.38542e-014
rhumerus -45.0026 11.9846 -86.9997
rradius 34.5903
rwrist -16.7965
rhand -28.7198 -26.145
rfingers 7.12502
rthumb -2.08111 -56.1146
lclavicle 1.53748e-014 -2.38542e-014
lhumerus -32.2528 -5.52491 92.4321
lradius 20.8411
lwrist -8.24959
lhand -2.54418 -18.6637
lfingers 7.12502
lthumb 23.1514 9.96509
rfemur -24.4673 -2.25541 26.9592
rtibia 30.728
rfoot -12.4974 -3.52268
rtoes -6.16001
lfemur 0.190697 11.6525 -10.1267
ltibia 50.5018
lfoot 3.64467 9.28451
ltoes 6.44467
175
root 8.7522 16.71 -8.10943 3.89511 9.7201 -2.45502
lowerback -6.52779 -3.51243 -1.86332
upperback -0.306355 -4.66291 3.2542
thorax 3.76159 -2.38117 3.95517
lowerneck -19.436 -5.78244 -13.4669
upperneck 19.7598 -7.44128 14.1423
head 10.632 -2.8698 6.25631
rclavicle -1.2424e-015 -1.55052e-014
rhumerus -44.9286 12.4092 -87.1822
rradius 35.0452
rwrist -17.3513
rhand -28.7654 -26.9642
rfingers 7.12502
rthumb -2.12511 -56.9334
lclavicle -1.2424e-015 -1.55052e-014
lhumerus -32.8739 -6.54814 92.5574
lradius 20.8222
lwrist -7.23011
lhand -2.9985 -18.877
lfingers 7.12502
lthumb 22.7154 9.80597
rfemur -23.5708 -2.15336 27.1181
rtibia 30.2615
rfoot -12.7086 -3.36523
rtoes -5.45032
lfemur -1.07701 12.0309 -10.1674
ltibia 52.5763
lfoot 0.496679 10.5482
ltoes -1.89369
176
root 8.7249 16.7424 -7.98726 3.89329 9.54432 -2.71285
lowerback -6.38934 -3.41192 -1.75218
upperback -0.26573 -4.53934 3.28174
thorax 3.709 -2.31816 3.9416
lowerneck -19.5064 -5.75482 -13.3007
upperneck 19.5713 -7.44127 14.2097
head 10.5739 -2.84739 6.24541
rclavicle 2.98301e-014 -2.66371e-014
rhumerus -44.7539 13.0202 -87.4154
rradius 35.5879
rwrist -18.3016
rhand -28.951 -32.0689
rfingers 7.12502
rthumb -2.30441 -62.0362
lclavicle 2.98301e-014 -2.66371e-014
lhumerus -33.5471 -8.20203 93.0635
lradius 20.9716
lwrist -4.77747
lhand -4.5942 -18.5913
lfingers 7.12502
lthumb 21.1833 10.2713
rfemur -22.9306 -1.60776 27.4929
rtibia 29.8287
rfoot -13.0251 -3.66278
rtoes -4.86027
lfemur -2.58689 12.4992 -9.92381
ltibia 54.4283
lfoot 0.754504 11.1878
ltoes -3.4056
177
root 8.70641 16.7686 -7.86017 4.0466 9.41531 -2.45704
lowerback -6.53612 -3.34491 -2.05613
upperback -0.135694 -4.42395 3.1301
thorax 3.92764 -2.26908 3.95453
lowerneck -19.473 -5.79636 -13.4623
upperneck 19.1515 -7.53768 14.724
head 10.4651 -2.85143 6.43857
rclavicle 2.59414e-014 9.54166e-015
rhumerus -44.3703 13.5399 -87.5309
rradius 36.2346
rwrist -18.6794
rhand -29.5343 -27.798
rfingers 7.12502
rthumb -2.86776 -57.7584
lclavicle 2.59414e-014 9.54166e-015
lhumerus -33.6673 -7.71973 92.2521
lradius 20.9102
lwrist -6.92742
lhand -3.84135 -18.984
lfingers 7.12502
lthumb 21.9063 9.79581
rfemur -22.4095 -1.45325 27.3305
rtibia 29.413
rfoot -13.3105 -3.6644
rtoes -4.54403
lfemur -4.07557 12.8248 -10.3813
ltibia 56.0537
lfoot -1.59426 11.5248
ltoes -3.67135
178
root 8.70176 16.7772 -7.73651 4.16086 9.17672 -2.11089
lowerback -6.56249 -3.17161 -2.31961
upperback -0.0808569 -4.16911 3.01711
thorax 3.98744 -2.14779 4.00996
lowerneck -19.1273 -5.9043 -14.119
upperneck 18.6701 -7.67465 15.5121
head 10.319 -2.89618 6.81574
rclavicle -3.19546e-014 -2.3059e-014
rhumerus -44.1247 13.9762 -87.3764
rradius 37.0186
rwrist -18.8545
rhand -29.4251 -24.557
rfingers 7.12502
rthumb -2.76226 -54.5188
lclavicle -3.19546e-014 -2.3059e-014
lhumerus -34.1829 -8.4167 92.4502
lradius 21.1828
lwrist -6.21499
lhand -3.56073 -18.8919
lfingers 7.12502
lthumb 22.1757 9.85614
rfemur -21.7872 -1.95918 27.1472
rtibia 29.0728
rfoot -13.4113 -2.95127
rtoes -4.66196
lfemur -5.48869 13.1432 -11.0491
ltibia 57.5291
lfoot -1.11453 12.303
ltoes -0.645802
179
root 8.69042 16.7859 -7.61649 4.28586 8.78326 -2.18975
lowerback -6.58903 -2.96959 -2.24377
upperback -0.0639365 -3.90515 3.0183
thorax 3.99085 -2.01525 3.99595
lowerneck -19.2224 -5.98116 -13.9938
upperneck 18.6594 -7.76181 15.3238
head 10.3334 -2.94272 6.70597
rclavicle -9.93923e-017 -3.97569e-016
rhumerus -43.8706 14.53 -87.3172
rradius 37.7501
rwrist -19.2796
rhand -29.631 -25.8634
rfingers 7.12502
rthumb -2.96108 -55.8226
lclavicle -9.93923e-017 -3.97569e-016
lhumerus -34.7721 -9.41302 92.7786
lradius 21.3303
lwrist -4.63035
lhand -3.6307 -19.2296
lfingers 7.12502
lthumb 22.1086 9.52639
rfemur -21.2597 -2.04697 27.3919
rtibia 28.8076
rfoot -13.6686 -2.38636
rtoes -4.72223
lfemur -7.032 13.6505 -11.2088
ltibia 58.9249
lfoot -3.82879 12.3914
ltoes -4.45798
180
root 8.6774 16.7998 -7.50137 4.29416 8.34357 -2.38109
lowerback -6.47223 -2.75476 -2.03376
upperback -0.0567475 -3.63313 2.96869
thorax 3.89146 -1.87401 3.86052
lowerneck -19.5954 -6.00716 -13.307
upperneck 19.0629 -7.81157 14.5313
head 10.4859 -2.98132 6.28811
rclavicle -6.3785e-014 2.06736e-014
rhumerus -43.5049 14.8275 -87.2807
rradius 38.1897
rwrist -19.7038
rhand -29.731 -26.4857
rfingers 7.12502
rthumb -3.05767 -56.4435
lclavicle -6.3785e-014 2.06736e-014
lhumerus -35.3425 -9.23387 92.377
lradius 21.3808
lwrist -4.79895
lhand -3.68743 -19.9261
lfingers 7.12502
lthumb 22.0541 8.83636
rfemur -20.6521 -1.72109 27.6693
rtibia 28.4772
rfoot -14.0977 -2.12695
rtoes -4.64609
lfemur -8.35334 14.2533 -11.1985
ltibia 60.2449
lfoot -5.58764 12.3291
ltoes -8.28126
181
root 8.66664 16.8127 -7.38838 4.28861 7.85541 -2.56175
lowerback -6.24175 -2.47589 -1.80618
upperback -0.171644 -3.27661 2.97045
thorax 3.59912 -1.68712 3.78318
lowerneck -19.2199 -6.02821 -13.4028
upperneck 19.0491 -7.84238 14.4735
head 10.4159 -3.02339 6.27839
rclavicle -2.16675e-014 3.97569e-016
rhumerus -43.2752 14.826 -86.9406
rradius 38.558
rwrist -20.1789
rhand -28.604 -26.1679
rfingers 7.12502
rthumb -1.96929 -56.1386
lclavicle -2.16675e-014 3.97569e-016
lhumerus -36.2144 -8.67314 91.9972
lradius 21.7986
lwrist -5.16069
lhand -3.85429 -20.3169
lfingers 7.12502
lthumb 21.8939 8.46434
rfemur -20.0309 -1.50155 27.9461
rtibia 28.082
rfoot -14.2692 -1.77285
rtoes -4.55079
lfemur -9.72972 14.9553 -11.2291
ltibia 61.5092
lfoot -5.42362 12.5013
ltoes -6.28581
182
root 8.65354 16.8231 -7.2771 4.44568 7.38956 -2.78619
lowerback -6.29903 -2.17005 -1.51735
upperback -0.201926 -2.88761 2.95815
thorax 3.55267 -1.48709 3.64473
lowerneck -18.6687 -6.10473 -13.9667
upperneck 18.6134 -7.95714 15.1024
head 10.233 -3.07587 6.58387
rclavicle 1.60146e-014 1.35174e-014
rhumerus -43.1945 15.2834 -87.0683
rradius 39.0347
rwrist -19.9751
rhand -29.7622 -27.2984
rfingers 7.12502
rthumb -3.08778 -57.2558
lclavicle 1.60146e-014 1.35174e-014
lhumerus -36.8732 -8.79559 91.8675
lradius 22.299
lwrist -4.38745
lhand -4.99118 -21.1629
lfingers 7.12502
lthumb 20.8019 7.74197
rfemur -19.637 -1.26863 28.3048
rtibia 27.763
rfoot -14.1478 -1.49466
rtoes -4.41885
lfemur -11.4718 15.58 -11.2827
ltibia 62.6554
lfoot -5.15258 12.4992
ltoes -1.55975
183
root 8.63959 16.8239 -7.1697 4.53923 7.01533 -3.15629
lowerback -6.26417 -1.89407 -1.11833
upperback -0.203763 -2.54815 2.97504
thorax 3.48805 -1.31056 3.47149
lowerneck -18.767 -6.24962 -14.0892
upperneck 18.6317 -8.15179 15.2465
head 10.3049 -3.15539 6.62924
rclavicle -8.26199e-015 2.5842e-014
rhumerus -42.8681 15.3934 -86.9529
rradius 39.3518
rwrist -19.9611
rhand -30.0291 -26.3704
rfingers 7.12502
rthumb -3.34557 -56.3239
lclavicle -8.26199e-015 2.5842e-014
lhumerus -37.3332 -9.04275 91.7071
lradius 22.499
lwrist -3.82887
lhand -6.9843 -22.7435
lfingers 7.12502
lthumb 18.8859 6.35961
rfemur -19.2321 -0.905074 28.8217
rtibia 27.4912
rfoot -14.0804 -1.49037
rtoes -4.58498
lfemur -13.1361 16.0264 -11.1795
ltibia 63.6287
lfoot -7.34027 11.8645
ltoes -7.05894
184
root 8.62883 16.8233 -7.05857 4.58143 6.6361 -3.15502
lowerback -6.09951 -1.67296 -1.16224
upperback -0.23639 -2.24745 2.93745
thorax 3.3406 -1.15938 3.49067
lowerneck -19.1002 -6.34481 -13.8035
upperneck 18.9232 -8.27968 14.9054
head 10.4625 -3.21341 6.43717
rclavicle 1.55922e-014 -2.70347e-014
rhumerus -42.4437 15.4829 -86.6871
rradius 39.5273
rwrist -20.0357
rhand -29.7951 -24.9474
rfingers 7.12502
rthumb -3.11957 -54.9043
lclavicle 1.55922e-014 -2.70347e-014
lhumerus -37.8499 -9.20335 91.5785
lradius 22.4993
lwrist -3.4849
lhand -7.53685 -23.1334
lfingers 7.12502
lthumb 18.3544 6.02063
rfemur -18.7333 -0.61119 28.907
rtibia 27.2865
rfoot -14.1164 -1.41887
rtoes -3.54528
lfemur -14.5423 16.3606 -11.5279
ltibia 64.3661
lfoot -6.82814 12.0348
ltoes -1.6638
